# xmcd CD database file
#
# Track frame offsets:
#	150
#	25294
#	42550
#	60559
#	80851
#	105280
#	124674
#	141770
#	156992
#	176836
#
# Disc length: 2698 seconds
#
# Revision: 0
# Processed by: cddbd v1.5.1PL0 Copyright (c) Steve Scherf et al.
# Submitted via: CDex 1.51
#
DISCID=880a880a
DTITLE=Shaina Noll - Song for the Inner Child
DYEAR=2002
DGENRE=New Age
TTITLE0=How could anyone
TTITLE1=It's a joy
TTITLE2=Return again
TTITLE3=Everything
TTITLE4=Relax
TTITLE5=Peace be with you
TTITLE6=All through the night
TTITLE7=Lullabye 1
TTITLE8=Lullabye 2
TTITLE9=Deep peace
EXTD=YEAR: 2002
EXTT0=
EXTT1=
EXTT2=
EXTT3=
EXTT4=
EXTT5=
EXTT6=
EXTT7=
EXTT8=
EXTT9=
PLAYORDER=
